<svg width="189" height="189" viewBox="0 0 189 189" fill="none" xmlns="http://www.w3.org/2000/svg">
<g clip-path="url(#clip0_3_113)">
<path d="M167.481 119.799C162.432 114.858 157.545 108.999 152.793 102.195C152.199 101.331 152.091 100.251 152.496 99.279C155.547 91.692 157.086 83.646 157.086 75.303C157.086 55.35 149.31 36.99 134.028 25.623C133.731 25.407 133.353 25.272 133.002 25.245C131.976 25.191 130.95 25.38 130.059 25.839C120.636 30.618 113.454 39.798 108.594 52.191C108.135 53.379 106.974 54.162 105.651 54.108C102.546 53.946 99.144 53.838 95.418 53.838C91.827 53.838 88.533 53.919 85.536 54.081C84.213 54.135 83.025 53.352 82.566 52.137C77.679 39.609 70.875 30.564 61.344 25.839C60.669 25.488 59.886 25.38 59.13 25.434C58.347 25.515 57.564 25.785 56.943 26.244C41.85 37.638 33.804 55.431 33.804 75.276C33.804 83.403 35.289 91.26 38.178 98.658C38.556 99.603 38.448 100.683 37.881 101.52C33.075 108.567 28.242 114.669 23.301 119.853C22.302 120.906 22.194 122.499 23.058 123.66C23.76 124.578 34.587 140.319 53.973 150.552L84.807 168.21C91.368 171.963 99.495 171.963 106.056 168.21L136.863 150.579C156.249 140.319 167.103 124.605 167.778 123.687C168.669 122.499 168.561 120.852 167.481 119.799ZM151.038 75.303C151.038 79.515 150.606 83.646 149.742 87.669C149.175 90.342 145.503 90.828 144.153 88.452C140.265 81.675 136.485 74.196 132.732 65.961C132.354 65.124 132.408 64.179 132.813 63.369C135.945 57.051 137.268 49.734 136.755 42.039C136.647 40.365 138.807 39.555 139.833 40.932C146.988 50.544 151.038 62.613 151.038 75.303ZM127.062 35.181C128.034 34.317 129.6 34.884 129.87 36.126C131.436 43.605 131.085 50.868 128.871 57.186L127.467 56.808C127.224 56.754 123.984 55.917 118.044 55.161C116.019 54.891 114.804 52.785 115.641 50.976C118.611 44.523 122.526 39.123 127.062 35.181ZM75.546 51.003C76.383 52.812 75.141 54.918 73.143 55.161C67.014 55.944 63.666 56.781 63.423 56.835L62.289 57.132C60.048 50.814 59.724 43.524 61.263 35.991C61.533 34.722 63.072 34.182 64.071 35.046C68.607 39.015 72.549 44.469 75.546 51.003ZM39.852 75.303C39.852 62.451 43.983 50.274 51.3 40.608C52.326 39.258 54.486 40.068 54.378 41.742C53.838 49.329 55.107 56.592 58.131 62.883C58.536 63.72 58.563 64.665 58.158 65.502C54.297 73.575 50.436 80.946 46.575 87.642C45.171 90.072 41.499 89.451 40.959 86.697C40.23 82.971 39.852 79.164 39.852 75.303ZM95.418 150.606C66.312 150.606 45.225 136.62 34.965 127.521C31.806 124.713 31.428 119.961 34.101 116.694C44.334 104.193 54.216 87.777 64.125 66.933C65.556 63.936 68.391 61.857 71.712 61.371C76.896 60.615 84.915 59.832 95.418 59.832C105.786 59.832 113.751 60.615 118.935 61.344C122.337 61.83 125.226 63.99 126.603 67.095C135.999 88.02 145.827 104.409 156.384 116.721C159.219 120.015 158.841 124.929 155.547 127.791C145.179 136.917 124.254 150.606 95.418 150.606Z" fill="#536DFE"/>
<path d="M125.226 112.347C124.254 113.319 124.065 114.858 124.875 115.938C126.414 118.017 127.224 120.474 127.224 123.012C127.224 130.113 120.825 135.864 112.941 135.864C108.216 135.864 104.004 133.785 101.385 130.572C98.685 127.251 99.603 122.337 103.14 119.907L110.457 114.858C111.969 113.805 112.32 112.914 112.104 112.05L110.457 105.03C110.268 104.22 109.647 103.599 108.837 103.41C100.062 101.25 90.882 101.25 82.107 103.41C81.297 103.599 80.676 104.247 80.487 105.03L78.84 112.05C78.624 112.914 79.002 113.832 79.731 114.345L87.885 119.907C91.638 122.472 92.313 127.71 89.316 131.085C86.697 134.028 82.674 135.891 78.165 135.891C70.281 135.891 63.882 130.113 63.882 123.039C63.882 120.501 64.719 118.044 66.231 115.965C67.041 114.858 66.852 113.346 65.88 112.374L65.826 112.32C64.503 110.997 62.289 111.105 61.209 112.617C58.995 115.668 57.807 119.286 57.807 123.039C57.807 133.407 66.933 141.858 78.138 141.858C82.404 141.858 86.373 140.616 89.64 138.537C93.231 136.242 97.821 136.242 101.412 138.537C104.679 140.643 108.648 141.858 112.914 141.858C124.119 141.858 133.245 133.407 133.245 123.039C133.245 119.286 132.057 115.668 129.843 112.617C128.763 111.132 126.549 110.997 125.226 112.32V112.347Z" fill="#536DFE"/>
<path d="M74.142 95.58L75.735 95.607C78.84 95.661 81.567 93.609 82.323 90.639L83.133 87.507C83.646 85.536 83.052 83.538 81.513 82.053C79.947 80.541 77.544 79.65 74.898 79.596L69.147 79.488C66.042 79.434 63.315 81.486 62.559 84.456C61.83 87.291 62.64 90.018 64.827 92.124C67.041 94.284 70.335 95.499 74.142 95.58Z" fill="#536DFE"/>
<path d="M109.458 82.053C107.919 83.538 107.325 85.536 107.838 87.507L108.621 90.639C109.377 93.609 112.104 95.661 115.209 95.607L116.802 95.58C120.609 95.499 123.93 94.284 126.144 92.124C128.331 90.018 129.141 87.291 128.412 84.456C127.656 81.486 124.929 79.434 121.824 79.488L116.073 79.596C113.427 79.65 111.024 80.541 109.458 82.053Z" fill="#536DFE"/>
</g>
<defs>
<clipPath id="clip0_3_113">
<rect width="189" height="189" fill="white"/>
</clipPath>
</defs>
</svg>
